<?xml version="1.0" encoding="utf-8" standalone="no"?>
<!DOCTYPE svg PUBLIC "-//W3C//DTD SVG 1.1//EN"
  "http://www.w3.org/Graphics/SVG/1.1/DTD/svg11.dtd">
<svg xmlns:xlink="http://www.w3.org/1999/xlink" width="500.7875pt" height="225.454393pt" viewBox="0 0 500.7875 225.454393" xmlns="http://www.w3.org/2000/svg" version="1.1">
 <metadata>
  <rdf:RDF xmlns:dc="http://purl.org/dc/elements/1.1/" xmlns:cc="http://creativecommons.org/ns#" xmlns:rdf="http://www.w3.org/1999/02/22-rdf-syntax-ns#">
   <cc:Work>
    <dc:type rdf:resource="http://purl.org/dc/dcmitype/StillImage"/>
    <dc:date>2026-05-03T22:23:11.352733</dc:date>
    <dc:format>image/svg+xml</dc:format>
    <dc:creator>
     <cc:Agent>
      <dc:title>Matplotlib v3.10.7, https://matplotlib.org/</dc:title>
     </cc:Agent>
    </dc:creator>
   </cc:Work>
  </rdf:RDF>
 </metadata>
 <defs>
  <style type="text/css">*{stroke-linejoin: round; stroke-linecap: butt}</style>
 </defs>
 <g id="figure_1">
  <g id="patch_1">
   <path d="M 0 225.454393 
L 500.7875 225.454393 
L 500.7875 0 
L 0 0 
z
" style="fill: #ffffff"/>
  </g>
  <g id="axes_1">
   <g id="patch_2">
    <path d="M 85.7075 154.116 
L 498.6275 154.116 
L 498.6275 2.16 
L 85.7075 2.16 
z
" style="fill: #fff8f0"/>
   </g>
   <g id="matplotlib.axis_1">
    <g id="xtick_1">
     <g id="line2d_1">
      <defs>
       <path id="m3da73c97d8" d="M 0 0 
L 0 3.5 
" style="stroke: #b8a898; stroke-width: 0.8"/>
      </defs>
      <g>
       <use xlink:href="#m3da73c97d8" x="85.7075" y="154.116" style="fill: #b8a898; stroke: #b8a898; stroke-width: 0.8"/>
      </g>
     </g>
     <g id="text_1">
      <!-- 0.0 -->
      <g style="fill: #111827" transform="translate(79.34625 167.19475) scale(0.08 -0.08)">
       <defs>
        <path id="DejaVuSans-30" d="M 2034 4250 
Q 1547 4250 1301 3770 
Q 1056 3291 1056 2328 
Q 1056 1369 1301 889 
Q 1547 409 2034 409 
Q 2525 409 2770 889 
Q 3016 1369 3016 2328 
Q 3016 3291 2770 3770 
Q 2525 4250 2034 4250 
z
M 2034 4750 
Q 2819 4750 3233 4129 
Q 3647 3509 3647 2328 
Q 3647 1150 3233 529 
Q 2819 -91 2034 -91 
Q 1250 -91 836 529 
Q 422 1150 422 2328 
Q 422 3509 836 4129 
Q 1250 4750 2034 4750 
z
" transform="scale(0.015625)"/>
        <path id="DejaVuSans-2e" d="M 684 794 
L 1344 794 
L 1344 0 
L 684 0 
L 684 794 
z
" transform="scale(0.015625)"/>
       </defs>
       <use xlink:href="#DejaVuSans-30"/>
       <use xlink:href="#DejaVuSans-2e" transform="translate(63.623047 0)"/>
       <use xlink:href="#DejaVuSans-30" transform="translate(95.410156 0)"/>
      </g>
     </g>
    </g>
    <g id="xtick_2">
     <g id="line2d_2">
      <g>
       <use xlink:href="#m3da73c97d8" x="164.358929" y="154.116" style="fill: #b8a898; stroke: #b8a898; stroke-width: 0.8"/>
      </g>
     </g>
     <g id="text_2">
      <!-- 0.2 -->
      <g style="fill: #111827" transform="translate(157.997679 167.19475) scale(0.08 -0.08)">
       <defs>
        <path id="DejaVuSans-32" d="M 1228 531 
L 3431 531 
L 3431 0 
L 469 0 
L 469 531 
Q 828 903 1448 1529 
Q 2069 2156 2228 2338 
Q 2531 2678 2651 2914 
Q 2772 3150 2772 3378 
Q 2772 3750 2511 3984 
Q 2250 4219 1831 4219 
Q 1534 4219 1204 4116 
Q 875 4013 500 3803 
L 500 4441 
Q 881 4594 1212 4672 
Q 1544 4750 1819 4750 
Q 2544 4750 2975 4387 
Q 3406 4025 3406 3419 
Q 3406 3131 3298 2873 
Q 3191 2616 2906 2266 
Q 2828 2175 2409 1742 
Q 1991 1309 1228 531 
z
" transform="scale(0.015625)"/>
       </defs>
       <use xlink:href="#DejaVuSans-30"/>
       <use xlink:href="#DejaVuSans-2e" transform="translate(63.623047 0)"/>
       <use xlink:href="#DejaVuSans-32" transform="translate(95.410156 0)"/>
      </g>
     </g>
    </g>
    <g id="xtick_3">
     <g id="line2d_3">
      <g>
       <use xlink:href="#m3da73c97d8" x="243.010357" y="154.116" style="fill: #b8a898; stroke: #b8a898; stroke-width: 0.8"/>
      </g>
     </g>
     <g id="text_3">
      <!-- 0.4 -->
      <g style="fill: #111827" transform="translate(236.649107 167.19475) scale(0.08 -0.08)">
       <defs>
        <path id="DejaVuSans-34" d="M 2419 4116 
L 825 1625 
L 2419 1625 
L 2419 4116 
z
M 2253 4666 
L 3047 4666 
L 3047 1625 
L 3713 1625 
L 3713 1100 
L 3047 1100 
L 3047 0 
L 2419 0 
L 2419 1100 
L 313 1100 
L 313 1709 
L 2253 4666 
z
" transform="scale(0.015625)"/>
       </defs>
       <use xlink:href="#DejaVuSans-30"/>
       <use xlink:href="#DejaVuSans-2e" transform="translate(63.623047 0)"/>
       <use xlink:href="#DejaVuSans-34" transform="translate(95.410156 0)"/>
      </g>
     </g>
    </g>
    <g id="xtick_4">
     <g id="line2d_4">
      <g>
       <use xlink:href="#m3da73c97d8" x="321.661786" y="154.116" style="fill: #b8a898; stroke: #b8a898; stroke-width: 0.8"/>
      </g>
     </g>
     <g id="text_4">
      <!-- 0.6 -->
      <g style="fill: #111827" transform="translate(315.300536 167.19475) scale(0.08 -0.08)">
       <defs>
        <path id="DejaVuSans-36" d="M 2113 2584 
Q 1688 2584 1439 2293 
Q 1191 2003 1191 1497 
Q 1191 994 1439 701 
Q 1688 409 2113 409 
Q 2538 409 2786 701 
Q 3034 994 3034 1497 
Q 3034 2003 2786 2293 
Q 2538 2584 2113 2584 
z
M 3366 4563 
L 3366 3988 
Q 3128 4100 2886 4159 
Q 2644 4219 2406 4219 
Q 1781 4219 1451 3797 
Q 1122 3375 1075 2522 
Q 1259 2794 1537 2939 
Q 1816 3084 2150 3084 
Q 2853 3084 3261 2657 
Q 3669 2231 3669 1497 
Q 3669 778 3244 343 
Q 2819 -91 2113 -91 
Q 1303 -91 875 529 
Q 447 1150 447 2328 
Q 447 3434 972 4092 
Q 1497 4750 2381 4750 
Q 2619 4750 2861 4703 
Q 3103 4656 3366 4563 
z
" transform="scale(0.015625)"/>
       </defs>
       <use xlink:href="#DejaVuSans-30"/>
       <use xlink:href="#DejaVuSans-2e" transform="translate(63.623047 0)"/>
       <use xlink:href="#DejaVuSans-36" transform="translate(95.410156 0)"/>
      </g>
     </g>
    </g>
    <g id="xtick_5">
     <g id="line2d_5">
      <g>
       <use xlink:href="#m3da73c97d8" x="400.313214" y="154.116" style="fill: #b8a898; stroke: #b8a898; stroke-width: 0.8"/>
      </g>
     </g>
     <g id="text_5">
      <!-- 0.8 -->
      <g style="fill: #111827" transform="translate(393.951964 167.19475) scale(0.08 -0.08)">
       <defs>
        <path id="DejaVuSans-38" d="M 2034 2216 
Q 1584 2216 1326 1975 
Q 1069 1734 1069 1313 
Q 1069 891 1326 650 
Q 1584 409 2034 409 
Q 2484 409 2743 651 
Q 3003 894 3003 1313 
Q 3003 1734 2745 1975 
Q 2488 2216 2034 2216 
z
M 1403 2484 
Q 997 2584 770 2862 
Q 544 3141 544 3541 
Q 544 4100 942 4425 
Q 1341 4750 2034 4750 
Q 2731 4750 3128 4425 
Q 3525 4100 3525 3541 
Q 3525 3141 3298 2862 
Q 3072 2584 2669 2484 
Q 3125 2378 3379 2068 
Q 3634 1759 3634 1313 
Q 3634 634 3220 271 
Q 2806 -91 2034 -91 
Q 1263 -91 848 271 
Q 434 634 434 1313 
Q 434 1759 690 2068 
Q 947 2378 1403 2484 
z
M 1172 3481 
Q 1172 3119 1398 2916 
Q 1625 2713 2034 2713 
Q 2441 2713 2670 2916 
Q 2900 3119 2900 3481 
Q 2900 3844 2670 4047 
Q 2441 4250 2034 4250 
Q 1625 4250 1398 4047 
Q 1172 3844 1172 3481 
z
" transform="scale(0.015625)"/>
       </defs>
       <use xlink:href="#DejaVuSans-30"/>
       <use xlink:href="#DejaVuSans-2e" transform="translate(63.623047 0)"/>
       <use xlink:href="#DejaVuSans-38" transform="translate(95.410156 0)"/>
      </g>
     </g>
    </g>
    <g id="xtick_6">
     <g id="line2d_6">
      <g>
       <use xlink:href="#m3da73c97d8" x="478.964643" y="154.116" style="fill: #b8a898; stroke: #b8a898; stroke-width: 0.8"/>
      </g>
     </g>
     <g id="text_6">
      <!-- 1.0 -->
      <g style="fill: #111827" transform="translate(472.603393 167.19475) scale(0.08 -0.08)">
       <defs>
        <path id="DejaVuSans-31" d="M 794 531 
L 1825 531 
L 1825 4091 
L 703 3866 
L 703 4441 
L 1819 4666 
L 2450 4666 
L 2450 531 
L 3481 531 
L 3481 0 
L 794 0 
L 794 531 
z
" transform="scale(0.015625)"/>
       </defs>
       <use xlink:href="#DejaVuSans-31"/>
       <use xlink:href="#DejaVuSans-2e" transform="translate(63.623047 0)"/>
       <use xlink:href="#DejaVuSans-30" transform="translate(95.410156 0)"/>
      </g>
     </g>
    </g>
    <g id="text_7">
     <!-- Share of LongMemEval-S focus questions -->
     <g transform="translate(199.41125 179.697094) scale(0.09 -0.09)">
      <defs>
       <path id="DejaVuSans-53" d="M 3425 4513 
L 3425 3897 
Q 3066 4069 2747 4153 
Q 2428 4238 2131 4238 
Q 1616 4238 1336 4038 
Q 1056 3838 1056 3469 
Q 1056 3159 1242 3001 
Q 1428 2844 1947 2747 
L 2328 2669 
Q 3034 2534 3370 2195 
Q 3706 1856 3706 1288 
Q 3706 609 3251 259 
Q 2797 -91 1919 -91 
Q 1588 -91 1214 -16 
Q 841 59 441 206 
L 441 856 
Q 825 641 1194 531 
Q 1563 422 1919 422 
Q 2459 422 2753 634 
Q 3047 847 3047 1241 
Q 3047 1584 2836 1778 
Q 2625 1972 2144 2069 
L 1759 2144 
Q 1053 2284 737 2584 
Q 422 2884 422 3419 
Q 422 4038 858 4394 
Q 1294 4750 2059 4750 
Q 2388 4750 2728 4690 
Q 3069 4631 3425 4513 
z
" transform="scale(0.015625)"/>
       <path id="DejaVuSans-68" d="M 3513 2113 
L 3513 0 
L 2938 0 
L 2938 2094 
Q 2938 2591 2744 2837 
Q 2550 3084 2163 3084 
Q 1697 3084 1428 2787 
Q 1159 2491 1159 1978 
L 1159 0 
L 581 0 
L 581 4863 
L 1159 4863 
L 1159 2956 
Q 1366 3272 1645 3428 
Q 1925 3584 2291 3584 
Q 2894 3584 3203 3211 
Q 3513 2838 3513 2113 
z
" transform="scale(0.015625)"/>
       <path id="DejaVuSans-61" d="M 2194 1759 
Q 1497 1759 1228 1600 
Q 959 1441 959 1056 
Q 959 750 1161 570 
Q 1363 391 1709 391 
Q 2188 391 2477 730 
Q 2766 1069 2766 1631 
L 2766 1759 
L 2194 1759 
z
M 3341 1997 
L 3341 0 
L 2766 0 
L 2766 531 
Q 2569 213 2275 61 
Q 1981 -91 1556 -91 
Q 1019 -91 701 211 
Q 384 513 384 1019 
Q 384 1609 779 1909 
Q 1175 2209 1959 2209 
L 2766 2209 
L 2766 2266 
Q 2766 2663 2505 2880 
Q 2244 3097 1772 3097 
Q 1472 3097 1187 3025 
Q 903 2953 641 2809 
L 641 3341 
Q 956 3463 1253 3523 
Q 1550 3584 1831 3584 
Q 2591 3584 2966 3190 
Q 3341 2797 3341 1997 
z
" transform="scale(0.015625)"/>
       <path id="DejaVuSans-72" d="M 2631 2963 
Q 2534 3019 2420 3045 
Q 2306 3072 2169 3072 
Q 1681 3072 1420 2755 
Q 1159 2438 1159 1844 
L 1159 0 
L 581 0 
L 581 3500 
L 1159 3500 
L 1159 2956 
Q 1341 3275 1631 3429 
Q 1922 3584 2338 3584 
Q 2397 3584 2469 3576 
Q 2541 3569 2628 3553 
L 2631 2963 
z
" transform="scale(0.015625)"/>
       <path id="DejaVuSans-65" d="M 3597 1894 
L 3597 1613 
L 953 1613 
Q 991 1019 1311 708 
Q 1631 397 2203 397 
Q 2534 397 2845 478 
Q 3156 559 3463 722 
L 3463 178 
Q 3153 47 2828 -22 
Q 2503 -91 2169 -91 
Q 1331 -91 842 396 
Q 353 884 353 1716 
Q 353 2575 817 3079 
Q 1281 3584 2069 3584 
Q 2775 3584 3186 3129 
Q 3597 2675 3597 1894 
z
M 3022 2063 
Q 3016 2534 2758 2815 
Q 2500 3097 2075 3097 
Q 1594 3097 1305 2825 
Q 1016 2553 972 2059 
L 3022 2063 
z
" transform="scale(0.015625)"/>
       <path id="DejaVuSans-20" transform="scale(0.015625)"/>
       <path id="DejaVuSans-6f" d="M 1959 3097 
Q 1497 3097 1228 2736 
Q 959 2375 959 1747 
Q 959 1119 1226 758 
Q 1494 397 1959 397 
Q 2419 397 2687 759 
Q 2956 1122 2956 1747 
Q 2956 2369 2687 2733 
Q 2419 3097 1959 3097 
z
M 1959 3584 
Q 2709 3584 3137 3096 
Q 3566 2609 3566 1747 
Q 3566 888 3137 398 
Q 2709 -91 1959 -91 
Q 1206 -91 779 398 
Q 353 888 353 1747 
Q 353 2609 779 3096 
Q 1206 3584 1959 3584 
z
" transform="scale(0.015625)"/>
       <path id="DejaVuSans-66" d="M 2375 4863 
L 2375 4384 
L 1825 4384 
Q 1516 4384 1395 4259 
Q 1275 4134 1275 3809 
L 1275 3500 
L 2222 3500 
L 2222 3053 
L 1275 3053 
L 1275 0 
L 697 0 
L 697 3053 
L 147 3053 
L 147 3500 
L 697 3500 
L 697 3744 
Q 697 4328 969 4595 
Q 1241 4863 1831 4863 
L 2375 4863 
z
" transform="scale(0.015625)"/>
       <path id="DejaVuSans-4c" d="M 628 4666 
L 1259 4666 
L 1259 531 
L 3531 531 
L 3531 0 
L 628 0 
L 628 4666 
z
" transform="scale(0.015625)"/>
       <path id="DejaVuSans-6e" d="M 3513 2113 
L 3513 0 
L 2938 0 
L 2938 2094 
Q 2938 2591 2744 2837 
Q 2550 3084 2163 3084 
Q 1697 3084 1428 2787 
Q 1159 2491 1159 1978 
L 1159 0 
L 581 0 
L 581 3500 
L 1159 3500 
L 1159 2956 
Q 1366 3272 1645 3428 
Q 1925 3584 2291 3584 
Q 2894 3584 3203 3211 
Q 3513 2838 3513 2113 
z
" transform="scale(0.015625)"/>
       <path id="DejaVuSans-67" d="M 2906 1791 
Q 2906 2416 2648 2759 
Q 2391 3103 1925 3103 
Q 1463 3103 1205 2759 
Q 947 2416 947 1791 
Q 947 1169 1205 825 
Q 1463 481 1925 481 
Q 2391 481 2648 825 
Q 2906 1169 2906 1791 
z
M 3481 434 
Q 3481 -459 3084 -895 
Q 2688 -1331 1869 -1331 
Q 1566 -1331 1297 -1286 
Q 1028 -1241 775 -1147 
L 775 -588 
Q 1028 -725 1275 -790 
Q 1522 -856 1778 -856 
Q 2344 -856 2625 -561 
Q 2906 -266 2906 331 
L 2906 616 
Q 2728 306 2450 153 
Q 2172 0 1784 0 
Q 1141 0 747 490 
Q 353 981 353 1791 
Q 353 2603 747 3093 
Q 1141 3584 1784 3584 
Q 2172 3584 2450 3431 
Q 2728 3278 2906 2969 
L 2906 3500 
L 3481 3500 
L 3481 434 
z
" transform="scale(0.015625)"/>
       <path id="DejaVuSans-4d" d="M 628 4666 
L 1569 4666 
L 2759 1491 
L 3956 4666 
L 4897 4666 
L 4897 0 
L 4281 0 
L 4281 4097 
L 3078 897 
L 2444 897 
L 1241 4097 
L 1241 0 
L 628 0 
L 628 4666 
z
" transform="scale(0.015625)"/>
       <path id="DejaVuSans-6d" d="M 3328 2828 
Q 3544 3216 3844 3400 
Q 4144 3584 4550 3584 
Q 5097 3584 5394 3201 
Q 5691 2819 5691 2113 
L 5691 0 
L 5113 0 
L 5113 2094 
Q 5113 2597 4934 2840 
Q 4756 3084 4391 3084 
Q 3944 3084 3684 2787 
Q 3425 2491 3425 1978 
L 3425 0 
L 2847 0 
L 2847 2094 
Q 2847 2600 2669 2842 
Q 2491 3084 2119 3084 
Q 1678 3084 1418 2786 
Q 1159 2488 1159 1978 
L 1159 0 
L 581 0 
L 581 3500 
L 1159 3500 
L 1159 2956 
Q 1356 3278 1631 3431 
Q 1906 3584 2284 3584 
Q 2666 3584 2933 3390 
Q 3200 3197 3328 2828 
z
" transform="scale(0.015625)"/>
       <path id="DejaVuSans-45" d="M 628 4666 
L 3578 4666 
L 3578 4134 
L 1259 4134 
L 1259 2753 
L 3481 2753 
L 3481 2222 
L 1259 2222 
L 1259 531 
L 3634 531 
L 3634 0 
L 628 0 
L 628 4666 
z
" transform="scale(0.015625)"/>
       <path id="DejaVuSans-76" d="M 191 3500 
L 800 3500 
L 1894 563 
L 2988 3500 
L 3597 3500 
L 2284 0 
L 1503 0 
L 191 3500 
z
" transform="scale(0.015625)"/>
       <path id="DejaVuSans-6c" d="M 603 4863 
L 1178 4863 
L 1178 0 
L 603 0 
L 603 4863 
z
" transform="scale(0.015625)"/>
       <path id="DejaVuSans-2d" d="M 313 2009 
L 1997 2009 
L 1997 1497 
L 313 1497 
L 313 2009 
z
" transform="scale(0.015625)"/>
       <path id="DejaVuSans-63" d="M 3122 3366 
L 3122 2828 
Q 2878 2963 2633 3030 
Q 2388 3097 2138 3097 
Q 1578 3097 1268 2742 
Q 959 2388 959 1747 
Q 959 1106 1268 751 
Q 1578 397 2138 397 
Q 2388 397 2633 464 
Q 2878 531 3122 666 
L 3122 134 
Q 2881 22 2623 -34 
Q 2366 -91 2075 -91 
Q 1284 -91 818 406 
Q 353 903 353 1747 
Q 353 2603 823 3093 
Q 1294 3584 2113 3584 
Q 2378 3584 2631 3529 
Q 2884 3475 3122 3366 
z
" transform="scale(0.015625)"/>
       <path id="DejaVuSans-75" d="M 544 1381 
L 544 3500 
L 1119 3500 
L 1119 1403 
Q 1119 906 1312 657 
Q 1506 409 1894 409 
Q 2359 409 2629 706 
Q 2900 1003 2900 1516 
L 2900 3500 
L 3475 3500 
L 3475 0 
L 2900 0 
L 2900 538 
Q 2691 219 2414 64 
Q 2138 -91 1772 -91 
Q 1169 -91 856 284 
Q 544 659 544 1381 
z
M 1991 3584 
L 1991 3584 
z
" transform="scale(0.015625)"/>
       <path id="DejaVuSans-73" d="M 2834 3397 
L 2834 2853 
Q 2591 2978 2328 3040 
Q 2066 3103 1784 3103 
Q 1356 3103 1142 2972 
Q 928 2841 928 2578 
Q 928 2378 1081 2264 
Q 1234 2150 1697 2047 
L 1894 2003 
Q 2506 1872 2764 1633 
Q 3022 1394 3022 966 
Q 3022 478 2636 193 
Q 2250 -91 1575 -91 
Q 1294 -91 989 -36 
Q 684 19 347 128 
L 347 722 
Q 666 556 975 473 
Q 1284 391 1588 391 
Q 1994 391 2212 530 
Q 2431 669 2431 922 
Q 2431 1156 2273 1281 
Q 2116 1406 1581 1522 
L 1381 1569 
Q 847 1681 609 1914 
Q 372 2147 372 2553 
Q 372 3047 722 3315 
Q 1072 3584 1716 3584 
Q 2034 3584 2315 3537 
Q 2597 3491 2834 3397 
z
" transform="scale(0.015625)"/>
       <path id="DejaVuSans-71" d="M 947 1747 
Q 947 1113 1208 752 
Q 1469 391 1925 391 
Q 2381 391 2643 752 
Q 2906 1113 2906 1747 
Q 2906 2381 2643 2742 
Q 2381 3103 1925 3103 
Q 1469 3103 1208 2742 
Q 947 2381 947 1747 
z
M 2906 525 
Q 2725 213 2448 61 
Q 2172 -91 1784 -91 
Q 1150 -91 751 415 
Q 353 922 353 1747 
Q 353 2572 751 3078 
Q 1150 3584 1784 3584 
Q 2172 3584 2448 3432 
Q 2725 3281 2906 2969 
L 2906 3500 
L 3481 3500 
L 3481 -1331 
L 2906 -1331 
L 2906 525 
z
" transform="scale(0.015625)"/>
       <path id="DejaVuSans-74" d="M 1172 4494 
L 1172 3500 
L 2356 3500 
L 2356 3053 
L 1172 3053 
L 1172 1153 
Q 1172 725 1289 603 
Q 1406 481 1766 481 
L 2356 481 
L 2356 0 
L 1766 0 
Q 1100 0 847 248 
Q 594 497 594 1153 
L 594 3053 
L 172 3053 
L 172 3500 
L 594 3500 
L 594 4494 
L 1172 4494 
z
" transform="scale(0.015625)"/>
       <path id="DejaVuSans-69" d="M 603 3500 
L 1178 3500 
L 1178 0 
L 603 0 
L 603 3500 
z
M 603 4863 
L 1178 4863 
L 1178 4134 
L 603 4134 
L 603 4863 
z
" transform="scale(0.015625)"/>
      </defs>
      <use xlink:href="#DejaVuSans-53"/>
      <use xlink:href="#DejaVuSans-68" transform="translate(63.476562 0)"/>
      <use xlink:href="#DejaVuSans-61" transform="translate(126.855469 0)"/>
      <use xlink:href="#DejaVuSans-72" transform="translate(188.134766 0)"/>
      <use xlink:href="#DejaVuSans-65" transform="translate(226.998047 0)"/>
      <use xlink:href="#DejaVuSans-20" transform="translate(288.521484 0)"/>
      <use xlink:href="#DejaVuSans-6f" transform="translate(320.308594 0)"/>
      <use xlink:href="#DejaVuSans-66" transform="translate(381.490234 0)"/>
      <use xlink:href="#DejaVuSans-20" transform="translate(416.695312 0)"/>
      <use xlink:href="#DejaVuSans-4c" transform="translate(448.482422 0)"/>
      <use xlink:href="#DejaVuSans-6f" transform="translate(502.445312 0)"/>
      <use xlink:href="#DejaVuSans-6e" transform="translate(563.626953 0)"/>
      <use xlink:href="#DejaVuSans-67" transform="translate(627.005859 0)"/>
      <use xlink:href="#DejaVuSans-4d" transform="translate(690.482422 0)"/>
      <use xlink:href="#DejaVuSans-65" transform="translate(776.761719 0)"/>
      <use xlink:href="#DejaVuSans-6d" transform="translate(838.285156 0)"/>
      <use xlink:href="#DejaVuSans-45" transform="translate(935.697266 0)"/>
      <use xlink:href="#DejaVuSans-76" transform="translate(998.880859 0)"/>
      <use xlink:href="#DejaVuSans-61" transform="translate(1058.060547 0)"/>
      <use xlink:href="#DejaVuSans-6c" transform="translate(1119.339844 0)"/>
      <use xlink:href="#DejaVuSans-2d" transform="translate(1147.123047 0)"/>
      <use xlink:href="#DejaVuSans-53" transform="translate(1183.207031 0)"/>
      <use xlink:href="#DejaVuSans-20" transform="translate(1246.683594 0)"/>
      <use xlink:href="#DejaVuSans-66" transform="translate(1278.470703 0)"/>
      <use xlink:href="#DejaVuSans-6f" transform="translate(1313.675781 0)"/>
      <use xlink:href="#DejaVuSans-63" transform="translate(1374.857422 0)"/>
      <use xlink:href="#DejaVuSans-75" transform="translate(1429.837891 0)"/>
      <use xlink:href="#DejaVuSans-73" transform="translate(1493.216797 0)"/>
      <use xlink:href="#DejaVuSans-20" transform="translate(1545.316406 0)"/>
      <use xlink:href="#DejaVuSans-71" transform="translate(1577.103516 0)"/>
      <use xlink:href="#DejaVuSans-75" transform="translate(1640.580078 0)"/>
      <use xlink:href="#DejaVuSans-65" transform="translate(1703.958984 0)"/>
      <use xlink:href="#DejaVuSans-73" transform="translate(1765.482422 0)"/>
      <use xlink:href="#DejaVuSans-74" transform="translate(1817.582031 0)"/>
      <use xlink:href="#DejaVuSans-69" transform="translate(1856.791016 0)"/>
      <use xlink:href="#DejaVuSans-6f" transform="translate(1884.574219 0)"/>
      <use xlink:href="#DejaVuSans-6e" transform="translate(1945.755859 0)"/>
      <use xlink:href="#DejaVuSans-73" transform="translate(2009.134766 0)"/>
     </g>
    </g>
   </g>
   <g id="matplotlib.axis_2">
    <g id="ytick_1">
     <g id="line2d_7">
      <path d="M 85.7075 23.608335 
L 498.6275 23.608335 
" clip-path="url(#pe9b594feb0)" style="fill: none; stroke: #e8d9c7; stroke-width: 0.75; stroke-linecap: square"/>
     </g>
     <g id="line2d_8">
      <defs>
       <path id="m823e0e02cc" d="M 0 0 
L -3.5 0 
" style="stroke: #b8a898; stroke-width: 0.8"/>
      </defs>
      <g>
       <use xlink:href="#m823e0e02cc" x="85.7075" y="23.608335" style="fill: #b8a898; stroke: #b8a898; stroke-width: 0.8"/>
      </g>
     </g>
     <g id="text_8">
      <!-- MemAudit + dense -->
      <g style="fill: #111827" transform="translate(2.16 26.64771) scale(0.08 -0.08)">
       <defs>
        <path id="DejaVuSans-41" d="M 2188 4044 
L 1331 1722 
L 3047 1722 
L 2188 4044 
z
M 1831 4666 
L 2547 4666 
L 4325 0 
L 3669 0 
L 3244 1197 
L 1141 1197 
L 716 0 
L 50 0 
L 1831 4666 
z
" transform="scale(0.015625)"/>
        <path id="DejaVuSans-64" d="M 2906 2969 
L 2906 4863 
L 3481 4863 
L 3481 0 
L 2906 0 
L 2906 525 
Q 2725 213 2448 61 
Q 2172 -91 1784 -91 
Q 1150 -91 751 415 
Q 353 922 353 1747 
Q 353 2572 751 3078 
Q 1150 3584 1784 3584 
Q 2172 3584 2448 3432 
Q 2725 3281 2906 2969 
z
M 947 1747 
Q 947 1113 1208 752 
Q 1469 391 1925 391 
Q 2381 391 2643 752 
Q 2906 1113 2906 1747 
Q 2906 2381 2643 2742 
Q 2381 3103 1925 3103 
Q 1469 3103 1208 2742 
Q 947 2381 947 1747 
z
" transform="scale(0.015625)"/>
        <path id="DejaVuSans-2b" d="M 2944 4013 
L 2944 2272 
L 4684 2272 
L 4684 1741 
L 2944 1741 
L 2944 0 
L 2419 0 
L 2419 1741 
L 678 1741 
L 678 2272 
L 2419 2272 
L 2419 4013 
L 2944 4013 
z
" transform="scale(0.015625)"/>
       </defs>
       <use xlink:href="#DejaVuSans-4d"/>
       <use xlink:href="#DejaVuSans-65" transform="translate(86.279297 0)"/>
       <use xlink:href="#DejaVuSans-6d" transform="translate(147.802734 0)"/>
       <use xlink:href="#DejaVuSans-41" transform="translate(245.214844 0)"/>
       <use xlink:href="#DejaVuSans-75" transform="translate(313.623047 0)"/>
       <use xlink:href="#DejaVuSans-64" transform="translate(377.001953 0)"/>
       <use xlink:href="#DejaVuSans-69" transform="translate(440.478516 0)"/>
       <use xlink:href="#DejaVuSans-74" transform="translate(468.261719 0)"/>
       <use xlink:href="#DejaVuSans-20" transform="translate(507.470703 0)"/>
       <use xlink:href="#DejaVuSans-2b" transform="translate(539.257812 0)"/>
       <use xlink:href="#DejaVuSans-20" transform="translate(623.046875 0)"/>
       <use xlink:href="#DejaVuSans-64" transform="translate(654.833984 0)"/>
       <use xlink:href="#DejaVuSans-65" transform="translate(718.310547 0)"/>
       <use xlink:href="#DejaVuSans-6e" transform="translate(779.833984 0)"/>
       <use xlink:href="#DejaVuSans-73" transform="translate(843.212891 0)"/>
       <use xlink:href="#DejaVuSans-65" transform="translate(895.3125 0)"/>
      </g>
     </g>
    </g>
    <g id="ytick_2">
     <g id="line2d_9">
      <path d="M 85.7075 59.961445 
L 498.6275 59.961445 
" clip-path="url(#pe9b594feb0)" style="fill: none; stroke: #e8d9c7; stroke-width: 0.75; stroke-linecap: square"/>
     </g>
     <g id="line2d_10">
      <g>
       <use xlink:href="#m823e0e02cc" x="85.7075" y="59.961445" style="fill: #b8a898; stroke: #b8a898; stroke-width: 0.8"/>
      </g>
     </g>
     <g id="text_9">
      <!-- Full raw dense -->
      <g style="fill: #111827" transform="translate(21.05125 63.00082) scale(0.08 -0.08)">
       <defs>
        <path id="DejaVuSans-46" d="M 628 4666 
L 3309 4666 
L 3309 4134 
L 1259 4134 
L 1259 2759 
L 3109 2759 
L 3109 2228 
L 1259 2228 
L 1259 0 
L 628 0 
L 628 4666 
z
" transform="scale(0.015625)"/>
        <path id="DejaVuSans-77" d="M 269 3500 
L 844 3500 
L 1563 769 
L 2278 3500 
L 2956 3500 
L 3675 769 
L 4391 3500 
L 4966 3500 
L 4050 0 
L 3372 0 
L 2619 2869 
L 1863 0 
L 1184 0 
L 269 3500 
z
" transform="scale(0.015625)"/>
       </defs>
       <use xlink:href="#DejaVuSans-46"/>
       <use xlink:href="#DejaVuSans-75" transform="translate(52.019531 0)"/>
       <use xlink:href="#DejaVuSans-6c" transform="translate(115.398438 0)"/>
       <use xlink:href="#DejaVuSans-6c" transform="translate(143.181641 0)"/>
       <use xlink:href="#DejaVuSans-20" transform="translate(170.964844 0)"/>
       <use xlink:href="#DejaVuSans-72" transform="translate(202.751953 0)"/>
       <use xlink:href="#DejaVuSans-61" transform="translate(243.865234 0)"/>
       <use xlink:href="#DejaVuSans-77" transform="translate(305.144531 0)"/>
       <use xlink:href="#DejaVuSans-20" transform="translate(386.931641 0)"/>
       <use xlink:href="#DejaVuSans-64" transform="translate(418.71875 0)"/>
       <use xlink:href="#DejaVuSans-65" transform="translate(482.195312 0)"/>
       <use xlink:href="#DejaVuSans-6e" transform="translate(543.71875 0)"/>
       <use xlink:href="#DejaVuSans-73" transform="translate(607.097656 0)"/>
       <use xlink:href="#DejaVuSans-65" transform="translate(659.197266 0)"/>
      </g>
     </g>
    </g>
    <g id="ytick_3">
     <g id="line2d_11">
      <path d="M 85.7075 96.314555 
L 498.6275 96.314555 
" clip-path="url(#pe9b594feb0)" style="fill: none; stroke: #e8d9c7; stroke-width: 0.75; stroke-linecap: square"/>
     </g>
     <g id="line2d_12">
      <g>
       <use xlink:href="#m823e0e02cc" x="85.7075" y="96.314555" style="fill: #b8a898; stroke: #b8a898; stroke-width: 0.8"/>
      </g>
     </g>
     <g id="text_10">
      <!-- Budgeted raw -->
      <g style="fill: #111827" transform="translate(22.655 99.35393) scale(0.08 -0.08)">
       <defs>
        <path id="DejaVuSans-42" d="M 1259 2228 
L 1259 519 
L 2272 519 
Q 2781 519 3026 730 
Q 3272 941 3272 1375 
Q 3272 1813 3026 2020 
Q 2781 2228 2272 2228 
L 1259 2228 
z
M 1259 4147 
L 1259 2741 
L 2194 2741 
Q 2656 2741 2882 2914 
Q 3109 3088 3109 3444 
Q 3109 3797 2882 3972 
Q 2656 4147 2194 4147 
L 1259 4147 
z
M 628 4666 
L 2241 4666 
Q 2963 4666 3353 4366 
Q 3744 4066 3744 3513 
Q 3744 3084 3544 2831 
Q 3344 2578 2956 2516 
Q 3422 2416 3680 2098 
Q 3938 1781 3938 1306 
Q 3938 681 3513 340 
Q 3088 0 2303 0 
L 628 0 
L 628 4666 
z
" transform="scale(0.015625)"/>
       </defs>
       <use xlink:href="#DejaVuSans-42"/>
       <use xlink:href="#DejaVuSans-75" transform="translate(68.603516 0)"/>
       <use xlink:href="#DejaVuSans-64" transform="translate(131.982422 0)"/>
       <use xlink:href="#DejaVuSans-67" transform="translate(195.458984 0)"/>
       <use xlink:href="#DejaVuSans-65" transform="translate(258.935547 0)"/>
       <use xlink:href="#DejaVuSans-74" transform="translate(320.458984 0)"/>
       <use xlink:href="#DejaVuSans-65" transform="translate(359.667969 0)"/>
       <use xlink:href="#DejaVuSans-64" transform="translate(421.191406 0)"/>
       <use xlink:href="#DejaVuSans-20" transform="translate(484.667969 0)"/>
       <use xlink:href="#DejaVuSans-72" transform="translate(516.455078 0)"/>
       <use xlink:href="#DejaVuSans-61" transform="translate(557.568359 0)"/>
       <use xlink:href="#DejaVuSans-77" transform="translate(618.847656 0)"/>
      </g>
     </g>
    </g>
    <g id="ytick_4">
     <g id="line2d_13">
      <path d="M 85.7075 132.667665 
L 498.6275 132.667665 
" clip-path="url(#pe9b594feb0)" style="fill: none; stroke: #e8d9c7; stroke-width: 0.75; stroke-linecap: square"/>
     </g>
     <g id="line2d_14">
      <g>
       <use xlink:href="#m823e0e02cc" x="85.7075" y="132.667665" style="fill: #b8a898; stroke: #b8a898; stroke-width: 0.8"/>
      </g>
     </g>
     <g id="text_11">
      <!-- FIFO -->
      <g style="fill: #111827" transform="translate(60.8475 135.70704) scale(0.08 -0.08)">
       <defs>
        <path id="DejaVuSans-49" d="M 628 4666 
L 1259 4666 
L 1259 0 
L 628 0 
L 628 4666 
z
" transform="scale(0.015625)"/>
        <path id="DejaVuSans-4f" d="M 2522 4238 
Q 1834 4238 1429 3725 
Q 1025 3213 1025 2328 
Q 1025 1447 1429 934 
Q 1834 422 2522 422 
Q 3209 422 3611 934 
Q 4013 1447 4013 2328 
Q 4013 3213 3611 3725 
Q 3209 4238 2522 4238 
z
M 2522 4750 
Q 3503 4750 4090 4092 
Q 4678 3434 4678 2328 
Q 4678 1225 4090 567 
Q 3503 -91 2522 -91 
Q 1538 -91 948 565 
Q 359 1222 359 2328 
Q 359 3434 948 4092 
Q 1538 4750 2522 4750 
z
" transform="scale(0.015625)"/>
       </defs>
       <use xlink:href="#DejaVuSans-46"/>
       <use xlink:href="#DejaVuSans-49" transform="translate(57.519531 0)"/>
       <use xlink:href="#DejaVuSans-46" transform="translate(87.011719 0)"/>
       <use xlink:href="#DejaVuSans-4f" transform="translate(144.53125 0)"/>
      </g>
     </g>
    </g>
   </g>
   <g id="patch_3">
    <path d="M 85.7075 9.067091 
L 96.890168 9.067091 
L 96.890168 38.149579 
L 85.7075 38.149579 
z
" clip-path="url(#pe9b594feb0)" style="fill: #f97316; opacity: 0.92"/>
   </g>
   <g id="patch_4">
    <path d="M 85.7075 45.420201 
L 108.072835 45.420201 
L 108.072835 74.502689 
L 85.7075 74.502689 
z
" clip-path="url(#pe9b594feb0)" style="fill: #f97316; opacity: 0.92"/>
   </g>
   <g id="patch_5">
    <path d="M 85.7075 81.773311 
L 339.181298 81.773311 
L 339.181298 110.855799 
L 85.7075 110.855799 
z
" clip-path="url(#pe9b594feb0)" style="fill: #f97316; opacity: 0.92"/>
   </g>
   <g id="patch_6">
    <path d="M 85.7075 118.126421 
L 324.271075 118.126421 
L 324.271075 147.208909 
L 85.7075 147.208909 
z
" clip-path="url(#pe9b594feb0)" style="fill: #f97316; opacity: 0.92"/>
   </g>
   <g id="patch_7">
    <path d="M 96.890168 9.067091 
L 191.942842 9.067091 
L 191.942842 38.149579 
L 96.890168 38.149579 
z
" clip-path="url(#pe9b594feb0)" style="fill: #f59e0b; opacity: 0.92"/>
   </g>
   <g id="patch_8">
    <path d="M 108.072835 45.420201 
L 259.038847 45.420201 
L 259.038847 74.502689 
L 108.072835 74.502689 
z
" clip-path="url(#pe9b594feb0)" style="fill: #f59e0b; opacity: 0.92"/>
   </g>
   <g id="patch_9">
    <path d="M 339.181298 81.773311 
L 434.233973 81.773311 
L 434.233973 110.855799 
L 339.181298 110.855799 
z
" clip-path="url(#pe9b594feb0)" style="fill: #f59e0b; opacity: 0.92"/>
   </g>
   <g id="patch_10">
    <path d="M 324.271075 118.126421 
L 421.187527 118.126421 
L 421.187527 147.208909 
L 324.271075 147.208909 
z
" clip-path="url(#pe9b594feb0)" style="fill: #f59e0b; opacity: 0.92"/>
   </g>
   <g id="patch_11">
    <path d="M 191.942842 9.067091 
L 385.775746 9.067091 
L 385.775746 38.149579 
L 191.942842 38.149579 
z
" clip-path="url(#pe9b594feb0)" style="fill: #e11d48; opacity: 0.92"/>
   </g>
   <g id="patch_12">
    <path d="M 259.038847 45.420201 
L 398.822192 45.420201 
L 398.822192 74.502689 
L 259.038847 74.502689 
z
" clip-path="url(#pe9b594feb0)" style="fill: #e11d48; opacity: 0.92"/>
   </g>
   <g id="patch_13">
    <path d="M 434.233973 81.773311 
L 465.918197 81.773311 
L 465.918197 110.855799 
L 434.233973 110.855799 
z
" clip-path="url(#pe9b594feb0)" style="fill: #e11d48; opacity: 0.92"/>
   </g>
   <g id="patch_14">
    <path d="M 421.187527 118.126421 
L 456.599308 118.126421 
L 456.599308 147.208909 
L 421.187527 147.208909 
z
" clip-path="url(#pe9b594feb0)" style="fill: #e11d48; opacity: 0.92"/>
   </g>
   <g id="patch_15">
    <path d="M 385.775746 9.067091 
L 458.463086 9.067091 
L 458.463086 38.149579 
L 385.775746 38.149579 
z
" clip-path="url(#pe9b594feb0)" style="fill: #67e8f9; opacity: 0.92"/>
   </g>
   <g id="patch_16">
    <path d="M 398.822192 45.420201 
L 462.190642 45.420201 
L 462.190642 74.502689 
L 398.822192 74.502689 
z
" clip-path="url(#pe9b594feb0)" style="fill: #67e8f9; opacity: 0.92"/>
   </g>
   <g id="patch_17">
    <path d="M 465.918197 81.773311 
L 475.237087 81.773311 
L 475.237087 110.855799 
L 465.918197 110.855799 
z
" clip-path="url(#pe9b594feb0)" style="fill: #67e8f9; opacity: 0.92"/>
   </g>
   <g id="patch_18">
    <path d="M 456.599308 118.126421 
L 471.509531 118.126421 
L 471.509531 147.208909 
L 456.599308 147.208909 
z
" clip-path="url(#pe9b594feb0)" style="fill: #67e8f9; opacity: 0.92"/>
   </g>
   <g id="patch_19">
    <path d="M 458.463086 9.067091 
L 478.964643 9.067091 
L 478.964643 38.149579 
L 458.463086 38.149579 
z
" clip-path="url(#pe9b594feb0)" style="fill: #22c55e; opacity: 0.55"/>
   </g>
   <g id="patch_20">
    <path d="M 462.190642 45.420201 
L 478.964643 45.420201 
L 478.964643 74.502689 
L 462.190642 74.502689 
z
" clip-path="url(#pe9b594feb0)" style="fill: #22c55e; opacity: 0.55"/>
   </g>
   <g id="patch_21">
    <path d="M 475.237087 81.773311 
L 478.964643 81.773311 
L 478.964643 110.855799 
L 475.237087 110.855799 
z
" clip-path="url(#pe9b594feb0)" style="fill: #22c55e; opacity: 0.55"/>
   </g>
   <g id="patch_22">
    <path d="M 471.509531 118.126421 
L 478.964643 118.126421 
L 478.964643 147.208909 
L 471.509531 147.208909 
z
" clip-path="url(#pe9b594feb0)" style="fill: #22c55e; opacity: 0.55"/>
   </g>
   <g id="patch_23">
    <path d="M 85.7075 154.116 
L 85.7075 2.16 
" style="fill: none; stroke: #d6c7b5; stroke-width: 0.8; stroke-linejoin: miter; stroke-linecap: square"/>
   </g>
   <g id="patch_24">
    <path d="M 85.7075 154.116 
L 498.6275 154.116 
" style="fill: none; stroke: #d6c7b5; stroke-width: 0.8; stroke-linejoin: miter; stroke-linecap: square"/>
   </g>
   <g id="text_12">
    <g id="patch_25">
     <path d="M 460.920896 27.695679 
L 476.506833 27.695679 
Q 477.206833 27.695679 477.206833 26.995679 
L 477.206833 20.220991 
Q 477.206833 19.520991 476.506833 19.520991 
L 460.920896 19.520991 
Q 460.220896 19.520991 460.220896 20.220991 
L 460.220896 26.995679 
Q 460.220896 27.695679 460.920896 27.695679 
z
" style="fill: #ffffff; opacity: 0.78"/>
    </g>
    <!-- 0.05 -->
    <g style="fill: #111827" transform="translate(460.920896 25.539897) scale(0.07 -0.07)">
     <defs>
      <path id="DejaVuSans-35" d="M 691 4666 
L 3169 4666 
L 3169 4134 
L 1269 4134 
L 1269 2991 
Q 1406 3038 1543 3061 
Q 1681 3084 1819 3084 
Q 2600 3084 3056 2656 
Q 3513 2228 3513 1497 
Q 3513 744 3044 326 
Q 2575 -91 1722 -91 
Q 1428 -91 1123 -41 
Q 819 9 494 109 
L 494 744 
Q 775 591 1075 516 
Q 1375 441 1709 441 
Q 2250 441 2565 725 
Q 2881 1009 2881 1497 
Q 2881 1984 2565 2268 
Q 2250 2553 1709 2553 
Q 1456 2553 1204 2497 
Q 953 2441 691 2322 
L 691 4666 
z
" transform="scale(0.015625)"/>
     </defs>
     <use xlink:href="#DejaVuSans-30"/>
     <use xlink:href="#DejaVuSans-2e" transform="translate(63.623047 0)"/>
     <use xlink:href="#DejaVuSans-30" transform="translate(95.410156 0)"/>
     <use xlink:href="#DejaVuSans-35" transform="translate(159.033203 0)"/>
    </g>
   </g>
   <g id="text_13">
    <g id="patch_26">
     <path d="M 462.784673 64.048789 
L 478.370611 64.048789 
Q 479.070611 64.048789 479.070611 63.348789 
L 479.070611 56.574101 
Q 479.070611 55.874101 478.370611 55.874101 
L 462.784673 55.874101 
Q 462.084673 55.874101 462.084673 56.574101 
L 462.084673 63.348789 
Q 462.084673 64.048789 462.784673 64.048789 
z
" style="fill: #ffffff; opacity: 0.78"/>
    </g>
    <!-- 0.04 -->
    <g style="fill: #111827" transform="translate(462.784673 61.893007) scale(0.07 -0.07)">
     <use xlink:href="#DejaVuSans-30"/>
     <use xlink:href="#DejaVuSans-2e" transform="translate(63.623047 0)"/>
     <use xlink:href="#DejaVuSans-30" transform="translate(95.410156 0)"/>
     <use xlink:href="#DejaVuSans-34" transform="translate(159.033203 0)"/>
    </g>
   </g>
   <g id="text_14">
    <g id="patch_27">
     <path d="M 467.239103 100.401899 
L 482.82504 100.401899 
Q 483.52504 100.401899 483.52504 99.701899 
L 483.52504 92.927211 
Q 483.52504 92.227211 482.82504 92.227211 
L 467.239103 92.227211 
Q 466.539103 92.227211 466.539103 92.927211 
L 466.539103 99.701899 
Q 466.539103 100.401899 467.239103 100.401899 
z
" style="fill: #ffffff; opacity: 0.78"/>
    </g>
    <!-- 0.01 -->
    <g style="fill: #111827" transform="translate(467.239103 98.246118) scale(0.07 -0.07)">
     <use xlink:href="#DejaVuSans-30"/>
     <use xlink:href="#DejaVuSans-2e" transform="translate(63.623047 0)"/>
     <use xlink:href="#DejaVuSans-30" transform="translate(95.410156 0)"/>
     <use xlink:href="#DejaVuSans-31" transform="translate(159.033203 0)"/>
    </g>
   </g>
   <g id="text_15">
    <g id="patch_28">
     <path d="M 467.239103 136.755009 
L 482.82504 136.755009 
Q 483.52504 136.755009 483.52504 136.055009 
L 483.52504 129.280321 
Q 483.52504 128.580321 482.82504 128.580321 
L 467.239103 128.580321 
Q 466.539103 128.580321 466.539103 129.280321 
L 466.539103 136.055009 
Q 466.539103 136.755009 467.239103 136.755009 
z
" style="fill: #ffffff; opacity: 0.78"/>
    </g>
    <!-- 0.02 -->
    <g style="fill: #111827" transform="translate(467.239103 134.599228) scale(0.07 -0.07)">
     <use xlink:href="#DejaVuSans-30"/>
     <use xlink:href="#DejaVuSans-2e" transform="translate(63.623047 0)"/>
     <use xlink:href="#DejaVuSans-30" transform="translate(95.410156 0)"/>
     <use xlink:href="#DejaVuSans-32" transform="translate(159.033203 0)"/>
    </g>
   </g>
   <g id="legend_1">
    <g id="patch_29">
     <path d="M 171.442109 197.734111 
L 185.442109 197.734111 
L 185.442109 192.834111 
L 171.442109 192.834111 
z
" style="fill: #f97316; opacity: 0.92"/>
    </g>
    <g id="text_16">
     <!-- Missing retrieved -->
     <g transform="translate(191.042109 193.086986) scale(0.07 -0.07)">
      <use xlink:href="#DejaVuSans-4d"/>
      <use xlink:href="#DejaVuSans-69" transform="translate(86.279297 0)"/>
      <use xlink:href="#DejaVuSans-73" transform="translate(114.0625 0)"/>
      <use xlink:href="#DejaVuSans-73" transform="translate(166.162109 0)"/>
      <use xlink:href="#DejaVuSans-69" transform="translate(218.261719 0)"/>
      <use xlink:href="#DejaVuSans-6e" transform="translate(246.044922 0)"/>
      <use xlink:href="#DejaVuSans-67" transform="translate(309.423828 0)"/>
      <use xlink:href="#DejaVuSans-20" transform="translate(372.900391 0)"/>
      <use xlink:href="#DejaVuSans-72" transform="translate(404.6875 0)"/>
      <use xlink:href="#DejaVuSans-65" transform="translate(443.550781 0)"/>
      <use xlink:href="#DejaVuSans-74" transform="translate(505.074219 0)"/>
      <use xlink:href="#DejaVuSans-72" transform="translate(544.283203 0)"/>
      <use xlink:href="#DejaVuSans-69" transform="translate(585.396484 0)"/>
      <use xlink:href="#DejaVuSans-65" transform="translate(613.179688 0)"/>
      <use xlink:href="#DejaVuSans-76" transform="translate(674.703125 0)"/>
      <use xlink:href="#DejaVuSans-65" transform="translate(733.882812 0)"/>
      <use xlink:href="#DejaVuSans-64" transform="translate(795.40625 0)"/>
     </g>
     <!-- evidence -->
     <g transform="translate(191.042109 200.925455) scale(0.07 -0.07)">
      <use xlink:href="#DejaVuSans-65"/>
      <use xlink:href="#DejaVuSans-76" transform="translate(61.523438 0)"/>
      <use xlink:href="#DejaVuSans-69" transform="translate(120.703125 0)"/>
      <use xlink:href="#DejaVuSans-64" transform="translate(148.486328 0)"/>
      <use xlink:href="#DejaVuSans-65" transform="translate(211.962891 0)"/>
      <use xlink:href="#DejaVuSans-6e" transform="translate(273.486328 0)"/>
      <use xlink:href="#DejaVuSans-63" transform="translate(336.865234 0)"/>
      <use xlink:href="#DejaVuSans-65" transform="translate(391.845703 0)"/>
     </g>
    </g>
    <g id="patch_30">
     <path d="M 171.442109 215.847268 
L 185.442109 215.847268 
L 185.442109 210.947268 
L 171.442109 210.947268 
z
" style="fill: #f59e0b; opacity: 0.92"/>
    </g>
    <g id="text_17">
     <!-- Abstained despite -->
     <g transform="translate(191.042109 211.200142) scale(0.07 -0.07)">
      <defs>
       <path id="DejaVuSans-62" d="M 3116 1747 
Q 3116 2381 2855 2742 
Q 2594 3103 2138 3103 
Q 1681 3103 1420 2742 
Q 1159 2381 1159 1747 
Q 1159 1113 1420 752 
Q 1681 391 2138 391 
Q 2594 391 2855 752 
Q 3116 1113 3116 1747 
z
M 1159 2969 
Q 1341 3281 1617 3432 
Q 1894 3584 2278 3584 
Q 2916 3584 3314 3078 
Q 3713 2572 3713 1747 
Q 3713 922 3314 415 
Q 2916 -91 2278 -91 
Q 1894 -91 1617 61 
Q 1341 213 1159 525 
L 1159 0 
L 581 0 
L 581 4863 
L 1159 4863 
L 1159 2969 
z
" transform="scale(0.015625)"/>
       <path id="DejaVuSans-70" d="M 1159 525 
L 1159 -1331 
L 581 -1331 
L 581 3500 
L 1159 3500 
L 1159 2969 
Q 1341 3281 1617 3432 
Q 1894 3584 2278 3584 
Q 2916 3584 3314 3078 
Q 3713 2572 3713 1747 
Q 3713 922 3314 415 
Q 2916 -91 2278 -91 
Q 1894 -91 1617 61 
Q 1341 213 1159 525 
z
M 3116 1747 
Q 3116 2381 2855 2742 
Q 2594 3103 2138 3103 
Q 1681 3103 1420 2742 
Q 1159 2381 1159 1747 
Q 1159 1113 1420 752 
Q 1681 391 2138 391 
Q 2594 391 2855 752 
Q 3116 1113 3116 1747 
z
" transform="scale(0.015625)"/>
      </defs>
      <use xlink:href="#DejaVuSans-41"/>
      <use xlink:href="#DejaVuSans-62" transform="translate(68.408203 0)"/>
      <use xlink:href="#DejaVuSans-73" transform="translate(131.884766 0)"/>
      <use xlink:href="#DejaVuSans-74" transform="translate(183.984375 0)"/>
      <use xlink:href="#DejaVuSans-61" transform="translate(223.193359 0)"/>
      <use xlink:href="#DejaVuSans-69" transform="translate(284.472656 0)"/>
      <use xlink:href="#DejaVuSans-6e" transform="translate(312.255859 0)"/>
      <use xlink:href="#DejaVuSans-65" transform="translate(375.634766 0)"/>
      <use xlink:href="#DejaVuSans-64" transform="translate(437.158203 0)"/>
      <use xlink:href="#DejaVuSans-20" transform="translate(500.634766 0)"/>
      <use xlink:href="#DejaVuSans-64" transform="translate(532.421875 0)"/>
      <use xlink:href="#DejaVuSans-65" transform="translate(595.898438 0)"/>
      <use xlink:href="#DejaVuSans-73" transform="translate(657.421875 0)"/>
      <use xlink:href="#DejaVuSans-70" transform="translate(709.521484 0)"/>
      <use xlink:href="#DejaVuSans-69" transform="translate(772.998047 0)"/>
      <use xlink:href="#DejaVuSans-74" transform="translate(800.78125 0)"/>
      <use xlink:href="#DejaVuSans-65" transform="translate(839.990234 0)"/>
     </g>
     <!-- support -->
     <g transform="translate(191.042109 219.038611) scale(0.07 -0.07)">
      <use xlink:href="#DejaVuSans-73"/>
      <use xlink:href="#DejaVuSans-75" transform="translate(52.099609 0)"/>
      <use xlink:href="#DejaVuSans-70" transform="translate(115.478516 0)"/>
      <use xlink:href="#DejaVuSans-70" transform="translate(178.955078 0)"/>
      <use xlink:href="#DejaVuSans-6f" transform="translate(242.431641 0)"/>
      <use xlink:href="#DejaVuSans-72" transform="translate(303.613281 0)"/>
      <use xlink:href="#DejaVuSans-74" transform="translate(344.726562 0)"/>
     </g>
    </g>
    <g id="patch_31">
     <path d="M 268.149297 197.734111 
L 282.149297 197.734111 
L 282.149297 192.834111 
L 268.149297 192.834111 
z
" style="fill: #e11d48; opacity: 0.92"/>
    </g>
    <g id="text_18">
     <!-- Reader/error or -->
     <g transform="translate(287.749297 193.086986) scale(0.07 -0.07)">
      <defs>
       <path id="DejaVuSans-52" d="M 2841 2188 
Q 3044 2119 3236 1894 
Q 3428 1669 3622 1275 
L 4263 0 
L 3584 0 
L 2988 1197 
Q 2756 1666 2539 1819 
Q 2322 1972 1947 1972 
L 1259 1972 
L 1259 0 
L 628 0 
L 628 4666 
L 2053 4666 
Q 2853 4666 3247 4331 
Q 3641 3997 3641 3322 
Q 3641 2881 3436 2590 
Q 3231 2300 2841 2188 
z
M 1259 4147 
L 1259 2491 
L 2053 2491 
Q 2509 2491 2742 2702 
Q 2975 2913 2975 3322 
Q 2975 3731 2742 3939 
Q 2509 4147 2053 4147 
L 1259 4147 
z
" transform="scale(0.015625)"/>
       <path id="DejaVuSans-2f" d="M 1625 4666 
L 2156 4666 
L 531 -594 
L 0 -594 
L 1625 4666 
z
" transform="scale(0.015625)"/>
      </defs>
      <use xlink:href="#DejaVuSans-52"/>
      <use xlink:href="#DejaVuSans-65" transform="translate(64.982422 0)"/>
      <use xlink:href="#DejaVuSans-61" transform="translate(126.505859 0)"/>
      <use xlink:href="#DejaVuSans-64" transform="translate(187.785156 0)"/>
      <use xlink:href="#DejaVuSans-65" transform="translate(251.261719 0)"/>
      <use xlink:href="#DejaVuSans-72" transform="translate(312.785156 0)"/>
      <use xlink:href="#DejaVuSans-2f" transform="translate(353.898438 0)"/>
      <use xlink:href="#DejaVuSans-65" transform="translate(387.589844 0)"/>
      <use xlink:href="#DejaVuSans-72" transform="translate(449.113281 0)"/>
      <use xlink:href="#DejaVuSans-72" transform="translate(488.476562 0)"/>
      <use xlink:href="#DejaVuSans-6f" transform="translate(527.339844 0)"/>
      <use xlink:href="#DejaVuSans-72" transform="translate(588.521484 0)"/>
      <use xlink:href="#DejaVuSans-20" transform="translate(629.634766 0)"/>
      <use xlink:href="#DejaVuSans-6f" transform="translate(661.421875 0)"/>
      <use xlink:href="#DejaVuSans-72" transform="translate(722.603516 0)"/>
     </g>
     <!-- unsupported -->
     <g transform="translate(287.749297 200.925455) scale(0.07 -0.07)">
      <use xlink:href="#DejaVuSans-75"/>
      <use xlink:href="#DejaVuSans-6e" transform="translate(63.378906 0)"/>
      <use xlink:href="#DejaVuSans-73" transform="translate(126.757812 0)"/>
      <use xlink:href="#DejaVuSans-75" transform="translate(178.857422 0)"/>
      <use xlink:href="#DejaVuSans-70" transform="translate(242.236328 0)"/>
      <use xlink:href="#DejaVuSans-70" transform="translate(305.712891 0)"/>
      <use xlink:href="#DejaVuSans-6f" transform="translate(369.189453 0)"/>
      <use xlink:href="#DejaVuSans-72" transform="translate(430.371094 0)"/>
      <use xlink:href="#DejaVuSans-74" transform="translate(471.484375 0)"/>
      <use xlink:href="#DejaVuSans-65" transform="translate(510.693359 0)"/>
      <use xlink:href="#DejaVuSans-64" transform="translate(572.216797 0)"/>
     </g>
    </g>
    <g id="patch_32">
     <path d="M 268.149297 215.847268 
L 282.149297 215.847268 
L 282.149297 210.947268 
L 268.149297 210.947268 
z
" style="fill: #67e8f9; opacity: 0.92"/>
    </g>
    <g id="text_19">
     <!-- Scoring/parse -->
     <g transform="translate(287.749297 211.200142) scale(0.07 -0.07)">
      <use xlink:href="#DejaVuSans-53"/>
      <use xlink:href="#DejaVuSans-63" transform="translate(63.476562 0)"/>
      <use xlink:href="#DejaVuSans-6f" transform="translate(118.457031 0)"/>
      <use xlink:href="#DejaVuSans-72" transform="translate(179.638672 0)"/>
      <use xlink:href="#DejaVuSans-69" transform="translate(220.751953 0)"/>
      <use xlink:href="#DejaVuSans-6e" transform="translate(248.535156 0)"/>
      <use xlink:href="#DejaVuSans-67" transform="translate(311.914062 0)"/>
      <use xlink:href="#DejaVuSans-2f" transform="translate(375.390625 0)"/>
      <use xlink:href="#DejaVuSans-70" transform="translate(409.082031 0)"/>
      <use xlink:href="#DejaVuSans-61" transform="translate(472.558594 0)"/>
      <use xlink:href="#DejaVuSans-72" transform="translate(533.837891 0)"/>
      <use xlink:href="#DejaVuSans-73" transform="translate(574.951172 0)"/>
      <use xlink:href="#DejaVuSans-65" transform="translate(627.050781 0)"/>
     </g>
     <!-- uncertain -->
     <g transform="translate(287.749297 219.038611) scale(0.07 -0.07)">
      <use xlink:href="#DejaVuSans-75"/>
      <use xlink:href="#DejaVuSans-6e" transform="translate(63.378906 0)"/>
      <use xlink:href="#DejaVuSans-63" transform="translate(126.757812 0)"/>
      <use xlink:href="#DejaVuSans-65" transform="translate(181.738281 0)"/>
      <use xlink:href="#DejaVuSans-72" transform="translate(243.261719 0)"/>
      <use xlink:href="#DejaVuSans-74" transform="translate(284.375 0)"/>
      <use xlink:href="#DejaVuSans-61" transform="translate(323.583984 0)"/>
      <use xlink:href="#DejaVuSans-69" transform="translate(384.863281 0)"/>
      <use xlink:href="#DejaVuSans-6e" transform="translate(412.646484 0)"/>
     </g>
    </g>
    <g id="patch_33">
     <path d="M 355.210703 197.734111 
L 369.210703 197.734111 
L 369.210703 192.834111 
L 355.210703 192.834111 
z
" style="fill: #22c55e; opacity: 0.55"/>
    </g>
    <g id="text_20">
     <!-- No flagged -->
     <g transform="translate(374.810703 193.086986) scale(0.07 -0.07)">
      <defs>
       <path id="DejaVuSans-4e" d="M 628 4666 
L 1478 4666 
L 3547 763 
L 3547 4666 
L 4159 4666 
L 4159 0 
L 3309 0 
L 1241 3903 
L 1241 0 
L 628 0 
L 628 4666 
z
" transform="scale(0.015625)"/>
      </defs>
      <use xlink:href="#DejaVuSans-4e"/>
      <use xlink:href="#DejaVuSans-6f" transform="translate(74.804688 0)"/>
      <use xlink:href="#DejaVuSans-20" transform="translate(135.986328 0)"/>
      <use xlink:href="#DejaVuSans-66" transform="translate(167.773438 0)"/>
      <use xlink:href="#DejaVuSans-6c" transform="translate(202.978516 0)"/>
      <use xlink:href="#DejaVuSans-61" transform="translate(230.761719 0)"/>
      <use xlink:href="#DejaVuSans-67" transform="translate(292.041016 0)"/>
      <use xlink:href="#DejaVuSans-67" transform="translate(355.517578 0)"/>
      <use xlink:href="#DejaVuSans-65" transform="translate(418.994141 0)"/>
      <use xlink:href="#DejaVuSans-64" transform="translate(480.517578 0)"/>
     </g>
     <!-- failure -->
     <g transform="translate(374.810703 200.925455) scale(0.07 -0.07)">
      <use xlink:href="#DejaVuSans-66"/>
      <use xlink:href="#DejaVuSans-61" transform="translate(35.205078 0)"/>
      <use xlink:href="#DejaVuSans-69" transform="translate(96.484375 0)"/>
      <use xlink:href="#DejaVuSans-6c" transform="translate(124.267578 0)"/>
      <use xlink:href="#DejaVuSans-75" transform="translate(152.050781 0)"/>
      <use xlink:href="#DejaVuSans-72" transform="translate(215.429688 0)"/>
      <use xlink:href="#DejaVuSans-65" transform="translate(254.292969 0)"/>
     </g>
    </g>
   </g>
  </g>
 </g>
 <defs>
  <clipPath id="pe9b594feb0">
   <rect x="85.7075" y="2.16" width="412.92" height="151.956"/>
  </clipPath>
 </defs>
</svg>
